name C:\Users\antoi\Documents\MyRepositories\upper-imu-dc\Results\main_tracking\Case_69\FLX01_orientations_groundFrame.mot
datacolumns 13
datarows 14
range 3.51000000 3.64000000
endheader 
time	radius_imu_[0][0]	radius_imu_[0][1]	radius_imu_[0][2]	radius_imu_[1][0]	radius_imu_[1][1]	radius_imu_[1][2]	radius_imu_[2][0]	radius_imu_[2][1]	radius_imu_[2][2]	radius_imu_x	radius_imu_y	radius_imu_z	
          3.51000000	          0.95330103	         -0.13275402	         -0.27128123	         -0.05521939	         -0.95968856	          0.27558788	         -0.29693090	         -0.24773823	         -0.92220270	         -2.85120358	         -0.27472393	          0.13836734	
          3.52000000	          0.95342243	         -0.13356747	         -0.27045407	         -0.05619972	         -0.95957618	          0.27578098	         -0.29635665	         -0.24773633	         -0.92238790	         -2.85106648	         -0.27386464	          0.13918680	
          3.53000000	          0.95354308	         -0.13437012	         -0.26962987	         -0.05715353	         -0.95945113	          0.27601992	         -0.29578551	         -0.24778659	         -0.92255771	         -2.85087926	         -0.27300864	          0.13999488	
          3.54000000	          0.95366438	         -0.13515571	         -0.26880696	         -0.05807525	         -0.95931398	          0.27630410	         -0.29521435	         -0.24789034	         -0.92271277	         -2.85064275	         -0.27215419	          0.14078494	
          3.55000000	          0.95378807	         -0.13591867	         -0.26798216	         -0.05896090	         -0.95916559	          0.27663151	         -0.29463865	         -0.24804736	         -0.92285458	         -2.85035942	         -0.27129797	          0.14155101	
          3.56000000	          0.95391594	         -0.13665426	         -0.26715161	         -0.05980792	         -0.95900713	          0.27699882	         -0.29405337	         -0.24825580	         -0.92298520	         -2.85003323	         -0.27043600	          0.14228800	
          3.57000000	          0.95404969	         -0.13735874	         -0.26631139	         -0.06061508	         -0.95883997	          0.27740175	         -0.29345356	         -0.24851257	         -0.92310699	         -2.84966916	         -0.26956419	          0.14299180	
          3.58000000	          0.95419049	         -0.13802943	         -0.26545883	         -0.06138209	         -0.95866560	          0.27783540	         -0.29283570	         -0.24881348	         -0.92322213	         -2.84927277	         -0.26867979	          0.14365954	
          3.59000000	          0.95433892	         -0.13866501	         -0.26459258	         -0.06210969	         -0.95848550	          0.27829467	         -0.29219789	         -0.24915367	         -0.92333247	         -2.84884970	         -0.26778142	          0.14428978	
          3.60000000	          0.95449477	         -0.13926555	         -0.26371355	         -0.06279934	         -0.95830104	          0.27877474	         -0.29154068	         -0.24952799	         -0.92343912	         -2.84840510	         -0.26687001	          0.14488266	
          3.61000000	          0.95465685	         -0.13983255	         -0.26282533	         -0.06345297	         -0.95811334	          0.27927147	         -0.29086769	         -0.24993138	         -0.92354225	         -2.84794312	         -0.26594931	          0.14543991	
          3.62000000	          0.95482292	         -0.14036908	         -0.26193454	         -0.06407291	         -0.95792318	          0.27978177	         -0.29018588	         -0.25035914	         -0.92364087	         -2.84746658	         -0.26502619	          0.14596504	
          3.63000000	          0.95498970	         -0.14087981	         -0.26105085	         -0.06466187	         -0.95773098	          0.28030378	         -0.28950562	         -0.25080719	         -0.92373278	         -2.84697664	         -0.26411064	          0.14646336	
          3.64000000	          0.95515294	         -0.14137103	         -0.26018665	         -0.06522295	         -0.95753669	          0.28083707	         -0.28884048	         -0.25127221	         -0.92381462	         -2.84647274	         -0.26321550	          0.14694198	
